<svg id="visual" viewBox="0 0 960 540" width="960" height="540" xmlns="http://www.w3.org/2000/svg" xmlns:xlink="http://www.w3.org/1999/xlink" version="1.1"><path d="M0 158L240 82L480 104L720 131L960 104L960 0L720 0L480 0L240 0L0 0Z" fill="#292929"></path><path d="M0 185L240 136L480 168L720 179L960 136L960 102L720 129L480 102L240 80L0 156Z" fill="#262626"></path><path d="M0 260L240 201L480 222L720 222L960 190L960 134L720 177L480 166L240 134L0 183Z" fill="#222222"></path><path d="M0 363L240 271L480 336L720 309L960 298L960 188L720 220L480 220L240 199L0 258Z" fill="#1f1f1f"></path><path d="M0 465L240 465L480 471L720 433L960 438L960 296L720 307L480 334L240 269L0 361Z" fill="#1c1c1c"></path><path d="M0 514L240 498L480 514L720 487L960 514L960 436L720 431L480 469L240 463L0 463Z" fill="#191919"></path><path d="M0 541L240 541L480 541L720 541L960 541L960 512L720 485L480 512L240 496L0 512Z" fill="#161616"></path></svg>